<svg width="55" height="52" viewBox="0 0 55 52" fill="none" xmlns="http://www.w3.org/2000/svg">
<path d="M43.1827 33.9495L33.8152 25.0575L37.416 21.6395L32.0013 16.4996L28.4005 19.9176L19.033 11.0256C17.9771 10.0234 16.2444 10.0234 15.1885 11.0256L12.2646 13.8012C11.2087 14.8034 11.2087 16.4482 12.2646 17.4505L21.632 26.3425L11.4794 35.9798V41.1196H16.8942L27.0468 31.4824L36.4143 40.3744C37.4701 41.3766 39.1758 41.3766 40.2316 40.3744L43.1556 37.5988C44.2385 36.5966 44.2385 34.9518 43.1827 33.9495ZM14.1868 15.6258L17.1107 12.8503L18.9788 14.6236L17.5168 16.0113L19.3037 17.7332L20.7657 16.3454L23.6355 19.0696L22.1735 20.4573L23.9875 22.1792L25.4494 20.7914L26.4782 21.768L23.5543 24.5178L14.1868 15.6258ZM15.7841 38.5497H14.1868V37.0334L32.0013 20.1232L33.5986 21.6395L15.7841 38.5497ZM38.3365 38.5497L28.969 29.6577L31.893 26.8822L32.9759 27.9102L31.5139 29.2979L33.3279 31.0198L34.7898 29.632L37.6596 32.3561L36.1977 33.7439L38.0116 35.4658L39.4736 34.078L41.2604 35.7742L38.3365 38.5497Z" fill="white"/>
<path d="M42.9381 16.3965C43.4796 15.8825 43.4796 15.0858 42.9381 14.5718L39.4456 11.2566C38.9041 10.7426 38.0649 10.7426 37.5234 11.2566L33.8955 14.7003L39.3102 19.8402L42.9381 16.3965Z" fill="white"/>
</svg>
